<?xml version="1.0" encoding="UTF-8" standalone="no"?>
<!-- Created with Inkscape (http://www.inkscape.org/) -->

<svg
   width="948.51965"
   height="725.70081"
   viewBox="0 0 250.96258 192.00857"
   version="1.1"
   id="svg5"
   inkscape:version="1.1 (c68e22c387, 2021-05-23)"
   sodipodi:docname="Take-Two Interactive's T2 Symbol.svg"
   xmlns:inkscape="http://www.inkscape.org/namespaces/inkscape"
   xmlns:sodipodi="http://sodipodi.sourceforge.net/DTD/sodipodi-0.dtd"
   xmlns="http://www.w3.org/2000/svg"
   xmlns:svg="http://www.w3.org/2000/svg">
  <sodipodi:namedview
     id="namedview7"
     pagecolor="#ffffff"
     bordercolor="#666666"
     borderopacity="1.0"
     inkscape:pageshadow="2"
     inkscape:pageopacity="0.0"
     inkscape:pagecheckerboard="0"
     inkscape:document-units="mm"
     showgrid="false"
     units="px"
     width="1122.5196px"
     inkscape:zoom="0.46324355"
     inkscape:cx="573.13264"
     inkscape:cy="352.94609"
     inkscape:window-width="1366"
     inkscape:window-height="705"
     inkscape:window-x="-8"
     inkscape:window-y="-8"
     inkscape:window-maximized="1"
     inkscape:current-layer="layer1"
     height="793.70081px" />
  <defs
     id="defs2">
    <clipPath
       clipPathUnits="userSpaceOnUse"
       id="clipPath23">
      <path
         d="M 0,783 H 603 V 0.015 H 0 Z"
         id="path21" />
    </clipPath>
    <clipPath
       clipPathUnits="userSpaceOnUse"
       id="clipPath123">
      <path
         d="M 0,783 H 603 V 0.015 H 0 Z"
         id="path121" />
    </clipPath>
  </defs>
  <g
     inkscape:label="Lapis 1"
     inkscape:groupmode="layer"
     id="layer1">
    <g
       id="g109"
       transform="matrix(1.4018825,0,0,-1.3947986,177.61661,145.59599)"
       style="fill:#000000">
      <path
         d="m 0,0 3.091,1.937 30.707,23.042 c 10.428,9.291 16.988,19.93 16.97,34.235 -0.034,28.609 -22.474,42.887 -48.957,42.855 -12.29,-0.015 -23.07,-3.317 -31.667,-9.324 l -0.013,10.725 -96,-0.115 0.039,-32.66 28.504,0.034 0.123,-103.127 39.588,0.047 -0.124,103.128 10.667,0.013 c -1.843,-4.581 -3.143,-9.59 -3.834,-14.984 l 33.449,-6.533 c 0.568,10.246 4.032,23.009 16.404,23.023 8.119,0.01 12.959,-6.17 12.968,-13.902 C 11.929,46.796 2.273,38.665 -5.837,31.697 l -44.999,-33.884 0.036,-30.349 100.905,0.121 1.507,32.477"
         style="fill:#000000;fill-opacity:1;fill-rule:nonzero;stroke:none"
         id="path111" />
    </g>
  </g>
</svg>
